<?xml version="1.0" encoding="UTF-8" standalone="no"?>
<!-- Created with Inkscape (http://www.inkscape.org/) -->

<svg
   xmlns:svg="http://www.w3.org/2000/svg"
   xmlns="http://www.w3.org/2000/svg"
   version="1.1"
   width="150"
   height="150"
   id="svg2"
   style="display:inline">
  <defs
     id="defs4" />
  <path
     d="m 149.36441,73.411018 a 74.682205,72.775421 0 1 1 -149.36441,0 74.682205,72.775421 0 1 1 149.36441,0 z"
     transform="matrix(0.99086522,0,0,1.0168268,1,0.35371051)"
     id="path2816"
     style="fill:#ffffff;fill-opacity:1;stroke:none" />
  <g
     transform="translate(-26.727812,-3.5153226)"
     id="layer2">
    <path
       d="M 96.358482,153.34731 C 83.459701,152.43333 70.936723,148.14324 60.053131,140.90998 53.355212,136.45853 46.786105,130.25505 41.872551,123.74129 35.906289,115.83202 31.387916,106.47062 29.048447,97.171708 23.450805,74.922237 28.093201,51.632474 41.748079,33.460688 52.112937,19.667254 67.097825,9.7722728 83.816633,5.6815381 105.79972,0.30274956 128.88544,5.0540722 146.93844,18.672776 c 6.52357,4.921209 12.7101,11.472699 17.16826,18.181044 4.6618,7.014767 8.3217,15.204172 10.2884,23.021467 6.03877,24.00285 0.21556,48.824393 -15.87363,67.661673 -2.6519,3.10485 -7.54766,7.73897 -11.00544,10.41731 -8.95777,6.93851 -19.93431,11.91513 -31.2355,14.16182 -6.12615,1.21788 -13.59566,1.6795 -19.922048,1.23122 z m 11.221658,-5.44997 c 10.45026,-0.81384 20.91592,-4.24972 30.39356,-9.97821 9.60465,-5.80524 18.42625,-14.8999 24.14248,-24.8897 8.79055,-15.362565 11.36246,-33.564035 7.18636,-50.85757 C 164.40853,41.905539 150.50633,24.780863 131.59117,15.719136 124.63203,12.385199 117.57457,10.360206 109.39376,9.3500346 106.3849,8.9784979 97.672396,8.9286149 94.625727,9.2654822 84.153314,10.423398 74.514151,13.649286 65.802735,18.911529 40.79219,34.019452 27.846154,62.881599 33.253137,91.478227 c 1.183429,6.258971 3.135476,12.072773 6.012013,17.905583 3.420087,6.93502 7.489995,12.55658 13.267241,18.32539 5.817546,5.80905 10.832717,9.44975 17.917272,13.00687 11.766609,5.90792 23.741604,8.22396 37.130477,7.18127 z M 97.018573,144.18 C 92.140838,143.71969 89.241517,143.25695 85.79042,142.38794 70.317637,138.49182 56.916063,129.27351 47.768738,116.23463 33.186573,95.44874 31.920431,67.976721 44.530409,45.971332 c 5.60587,-9.782673 13.679918,-18.031539 23.319784,-23.82467 8.123219,-4.881712 16.721718,-7.798691 26.527997,-8.999444 3.361352,-0.41159 11.16079,-0.41159 14.52215,0 11.36174,1.391215 21.46657,5.218952 30.46936,11.541886 13.86622,9.738664 23.51149,24.4904 26.7827,40.962175 1.71673,8.644343 1.71335,16.913217 -0.0105,25.822722 -0.42863,2.215247 -0.55465,2.643112 -0.68045,2.310394 -0.39749,-1.051285 -0.77992,-1.782265 -1.18304,-2.261365 -0.69301,-0.823629 -2.25996,-1.778317 -4.09687,-2.496118 -4.30281,-1.681381 -6.9341,-1.947278 -12.41793,-1.254843 -0.64378,0.08125 -0.67603,0.06084 -1.30491,-0.82818 -0.67682,-0.956761 -1.87311,-1.968062 -2.98573,-2.524028 -1.68714,-0.843032 -5.41109,-1.688138 -7.43878,-1.688138 -1.3199,0 -4.4282,0.530518 -6.78628,1.158265 -2.17754,0.579688 -2.46888,0.598492 -2.60544,0.168197 -0.31396,-0.989222 1.73483,-2.473855 4.30487,-3.119477 3.05611,-0.76773 6.72744,-0.972695 8.13198,-0.453998 1.8648,0.688669 2.16477,0.326735 2.16869,-2.616787 0.002,-1.259018 0.10425,-2.628587 0.24753,-3.305047 0.13457,-0.635321 0.24467,-1.393936 0.24467,-1.685801 0,-1.032155 -1.02953,-1.80009 -3.8722,-2.888318 -1.7256,-0.660586 -2.23156,-2.017293 -1.22587,-3.287131 1.10307,-1.392751 1.46885,-3.475315 0.80242,-4.568433 -0.38618,-0.633423 -1.24398,-1.059626 -2.89875,-1.440249 -1.55269,-0.357145 -1.88193,-0.592899 -1.88193,-1.347592 0,-0.72603 0.45563,-1.439524 1.34786,-2.110686 1.31663,-0.990396 2.46474,-3.338304 2.50156,-5.115722 0.036,-1.738801 -0.77217,-2.366141 -2.77227,-2.151937 -1.50377,0.16104 -2.16829,-0.01194 -2.91502,-0.758664 -0.78334,-0.783358 -0.84503,-1.451263 -0.21215,-2.296993 1.62042,-2.16538 1.35086,-3.706934 -0.71995,-4.117303 -1.71275,-0.339403 -2.21676,-0.515296 -2.61349,-0.912028 -0.61457,-0.61459 -0.51495,-1.27339 0.436,-2.883214 1.06347,-1.800334 1.25339,-2.410117 0.99471,-3.193933 -0.29703,-0.900025 -0.86417,-1.262212 -1.96913,-1.257516 -0.50965,0.002 -1.22368,0.07411 -1.58673,0.159937 -0.81673,0.193012 -1.17505,0.0934 -1.29347,-0.359391 -0.0503,-0.192288 0.0516,-1.460594 0.22641,-2.818455 0.34973,-2.7167 0.28407,-3.505102 -0.34803,-4.177948 -0.49404,-0.525892 -1.26599,-0.646948 -2.65875,-0.416933 -1.22435,0.202198 -1.97228,0.525688 -3.38654,1.464728 -0.60036,0.39863 -1.12278,0.604474 -1.65872,0.653594 -1.18094,0.108214 -1.98164,-0.529231 -5.01356,-3.991357 -2.52279,-2.880754 -4.8627,-5.056078 -6.2159,-5.778667 -0.90283,-0.482101 -2.67957,-0.451323 -3.65734,0.06339 -0.40561,0.2135 -1.593788,1.222759 -2.640393,2.242798 -2.478295,2.415373 -4.339595,3.473458 -6.810183,3.871342 -1.653482,0.266295 -2.078449,-0.04185 -4.143791,-3.004187 -1.215675,-1.74367 -2.170706,-2.793925 -2.869032,-3.155051 -1.694956,-0.876506 -3.432928,-0.249605 -5.079071,1.832081 -0.859334,1.086687 -2.993088,5.234155 -3.558043,6.915923 -0.578052,1.720733 -0.465216,4.018857 0.197314,4.018857 0.09575,0 0.594364,-0.380184 1.108106,-0.84486 0.513743,-0.464676 1.333788,-1.031595 1.822318,-1.259813 0.77312,-0.361188 1.035958,-0.402571 2.028217,-0.319387 2.069997,0.173546 3.747018,1.271339 4.60487,3.014387 0.329412,0.669314 0.399192,1.059502 0.39614,2.215154 -0.0051,1.900812 -0.300055,2.951433 -1.154926,4.112719 -1.001619,1.360638 -2.081583,1.875691 -4.112903,1.961509 -1.231006,0.05206 -1.659985,8.26e-4 -2.433401,-0.290703 -1.01101,-0.381012 -1.82344,-1.151987 -2.223898,-2.110441 -0.272627,-0.652512 -0.683119,-0.669763 -0.982154,-0.04134 -0.10767,0.226269 -0.532198,1.465769 -0.943415,2.75444 -0.998863,3.130308 -2.057411,5.306325 -3.136884,6.448369 -0.472208,0.499576 -2.003688,1.671 -3.440349,2.631517 -3.490815,2.333842 -6.002938,4.802908 -7.435271,7.307806 -0.233552,0.408441 -0.736097,1.63378 -1.116772,2.722969 -0.955062,2.732637 -2.027339,4.766416 -3.045312,5.775992 -0.4576,0.453834 -1.720914,1.382114 -2.807359,2.062863 -3.593077,2.251331 -5.64715,3.893748 -6.467593,5.171406 -0.524869,0.81736 -1.060436,2.706933 -1.153632,4.070182 -0.06747,0.98666 -0.0296,1.145005 0.471718,1.974452 0.747111,1.2361 1.985171,2.173139 4.863484,3.680985 3.132802,1.641161 4.456647,2.619226 5.522452,4.080024 0.648332,0.888601 1.037041,1.246564 1.712514,1.577055 1.718761,0.840931 4.831402,0.662567 7.118945,-0.40793 1.928365,-0.902412 3.69451,-2.934202 4.591817,-5.282468 0.578286,-1.513399 0.833968,-1.726541 1.938093,-1.615591 0.479364,0.04818 1.296285,0.183804 1.815367,0.30141 0.829619,0.187959 1.013623,0.180528 1.521027,-0.06145 1.232313,-0.587671 1.954763,-3.213053 1.332522,-4.842393 -0.243412,-0.637395 -0.253824,-0.785145 -0.0638,-0.905506 0.329341,-0.20861 0.400142,-0.18997 0.915752,0.241142 0.99772,0.834183 3.287152,1.782848 4.302562,1.782848 1.804107,0 3.467621,-2.178866 5.125043,-6.712765 0.781256,-2.137104 1.022842,-3.653924 1.022842,-6.421807 0,-2.399726 0.147409,-2.925342 0.953786,-3.401136 0.661989,-0.390596 0.782409,-0.383348 2.84178,0.170872 1.005294,0.270541 1.893628,0.382389 3.135455,0.394792 1.560858,0.01562 1.796237,-0.02215 2.372563,-0.380429 0.415739,-0.258435 0.762505,-0.663017 0.990146,-1.155204 0.324544,-0.701673 0.350338,-1.033105 0.350338,-4.499835 0,-4.243339 -0.0147,-4.297218 -1.382795,-5.061476 -0.902982,-0.504426 -1.26361,-1.036648 -1.015971,-1.499363 0.267819,-0.500445 0.883476,-0.424049 1.830045,0.227095 1.081392,0.743883 1.990882,0.880425 3.242332,0.486786 1.12504,-0.353879 2.02378,-1.191461 2.95524,-2.754153 0.80375,-1.34843 1.36303,-2.096509 1.56739,-2.096509 0.26464,0 0.78844,1.347939 0.90287,2.323441 0.12288,1.047457 -0.10105,2.017191 -0.63206,2.736924 -0.20831,0.282372 -1.05042,1.073824 -1.87135,1.758808 -2.79424,2.331485 -3.25216,3.544851 -3.46774,9.18859 -0.0606,1.588396 -0.17663,3.017182 -0.25765,3.175089 -0.21913,0.427008 -0.985967,0.766045 -2.003011,0.88558 -1.06018,0.124608 -2.743398,-0.207874 -4.738358,-0.935966 -1.524458,-0.556374 -2.466321,-0.621205 -2.839606,-0.195452 -0.85025,0.969745 -1.164851,2.364548 -1.184684,5.252396 l -0.01592,2.323145 -0.701401,0.894909 c -0.385779,0.492208 -1.067714,1.35677 -1.515413,1.921258 -0.642452,0.810032 -0.928247,1.383922 -1.35601,2.72297 -0.487122,1.524801 -0.631203,1.786358 -1.422704,2.582722 -0.874871,0.88023 -0.886365,0.885601 -1.738145,0.811766 -0.471608,-0.04083 -1.389728,-0.30966 -2.040285,-0.597299 -1.393063,-0.615917 -1.678991,-0.638303 -2.265035,-0.177312 -0.522378,0.410921 -0.916069,1.14775 -1.568646,2.935886 -0.265655,0.727939 -0.681905,1.584304 -0.925011,1.903026 -0.681047,0.892931 -2.664932,2.327351 -4.126275,2.983446 -0.725389,0.325674 -1.752385,0.791493 -2.282225,1.035136 -3.227488,1.484184 -2.957147,4.72728 0.484824,5.816018 2.025584,0.640722 3.329555,0.44818 5.891256,-0.86988 0.874657,-0.450027 1.48281,-0.901474 1.897773,-1.408748 1.757969,-2.148996 1.856228,-2.213419 4.818775,-3.159471 3.974086,-1.269061 8.761237,-3.710148 13.779531,-7.026496 2.869086,-1.896043 4.46329,-3.230518 5.11126,-4.278518 0.44029,-0.712095 0.50116,-0.961924 0.5129,-2.10505 0.0159,-1.544984 0.1673,-1.782726 0.93787,-1.472732 2.17334,0.874312 4.45322,0.62048 7.36887,-0.820392 1.43813,-0.710697 1.93879,-1.068762 3.06343,-2.190798 1.41705,-1.4138 2.15075,-2.649809 2.88682,-4.863228 0.74269,-2.233325 1.32255,-6.19414 1.32392,-9.043158 9.9e-4,-1.926494 0.6156,-2.337996 1.78481,-1.194849 0.7418,0.725264 0.92882,1.546942 0.91574,4.023308 -0.0168,3.180938 -0.70176,6.469398 -1.95305,9.376681 -0.77231,1.794394 -1.39308,2.768405 -2.91568,4.574793 -0.72377,0.858662 -1.54572,2.027614 -1.82657,2.597666 -0.48639,0.987313 -0.50145,1.077316 -0.31741,1.897831 0.25409,1.132826 0.83692,2.124039 2.72575,4.635703 1.86919,2.485543 1.87506,2.509961 1.65221,6.868467 -0.24948,4.878958 -0.20466,6.588289 0.19032,7.260677 0.41556,0.707399 1.63323,1.484346 2.51081,1.602064 0.606,0.08125 0.72263,0.02593 1.57987,-0.750467 1.41456,-1.281056 2.96798,-1.929209 5.78312,-2.412964 4.85753,-0.834724 11.44286,0.606689 12.04367,2.63615 0.24857,0.839624 -0.58244,0.995867 -2.70986,0.509508 -3.26603,-0.746638 -7.3084,-0.966537 -9.44504,-0.513774 -1.39113,0.294775 -3.83395,1.446341 -5.16112,2.432974 -2.41247,1.79348 -4.75869,4.4027 -5.77673,6.42432 -1.1616,2.30668 -1.85978,6.00537 -1.32781,7.03412 0.64392,1.24525 1.96688,1.14246 3.46103,-0.26888 0.40921,-0.38653 0.91651,-1.19593 1.42296,-2.27035 1.06404,-2.25731 1.84737,-3.36162 3.52728,-4.97271 1.012,-0.97056 1.53921,-1.36149 1.83607,-1.36149 0.35423,0 0.41643,0.0751 0.41643,0.5035 0,0.27692 -0.2895,1.18665 -0.64332,2.0216 -0.81982,1.93459 -1.20922,3.21394 -1.66668,5.47567 -0.31271,1.54611 -0.341,1.96631 -0.19264,2.86167 0.19073,1.15102 0.4771,1.69936 1.10103,2.10819 0.59555,0.39023 1.13737,0.18482 2.20657,-0.8365 1.50737,-1.43985 1.85938,-2.20137 2.82463,-6.11059 0.47064,-1.90608 1.00295,-3.80963 1.18291,-4.23009 0.38065,-0.88937 1.02617,-1.55925 1.65137,-1.71371 0.3553,-0.0878 0.49335,-0.0282 0.71379,0.3083 0.42752,0.65249 0.35421,1.95778 -0.22282,3.96765 -0.71176,2.47919 -1.17899,5.01238 -1.17899,6.39222 0,1.06153 0.0407,1.20029 0.48237,1.64191 0.5467,0.5467 1.04807,0.60583 1.94815,0.22975 1.76368,-0.73693 2.40647,-1.87476 3.2659,-5.78099 1.13242,-5.14705 2.03094,-7.00361 3.38953,-7.00361 0.2531,0 1.37555,0.22035 2.49437,0.48967 3.43355,0.82654 5.75464,1.00061 8.63516,0.64762 4.05711,-0.4972 7.40584,-1.97387 10.00923,-4.41375 0.71222,-0.66748 1.29493,-1.17658 1.29493,-1.13134 0,0.27317 -1.5346,3.87696 -2.54947,5.98703 -7.79232,16.20151 -21.72218,28.46472 -38.7066,34.07553 -7.05307,2.32997 -13.36165,3.31753 -20.86084,3.26554 -2.095667,-0.0145 -4.070222,-0.0509 -4.387896,-0.081 z M 63.09882,116.80248 c 0.295727,-0.14032 0.727053,-0.45594 0.958512,-0.70137 0.522675,-0.5542 1.301695,-2.74521 1.779282,-5.00421 0.199193,-0.9422 0.554053,-2.21215 0.788575,-2.82212 0.566741,-1.47407 2.117116,-3.77401 2.75182,-4.08224 0.758411,-0.36832 2.181679,-0.30372 3.028223,0.13744 1.017125,0.53005 2.281164,0.51019 3.238553,-0.0509 0.891152,-0.52226 1.169842,-0.90705 2.099753,-2.89915 0.52346,-1.1214 1.046421,-1.920194 1.836669,-2.805488 1.177447,-1.31905 1.926089,-2.60026 1.926089,-3.296257 0,-0.507071 -0.419791,-1.15951 -0.746049,-1.15951 -0.127749,0 -0.81045,0.527433 -1.517118,1.172086 -0.752858,0.68678 -1.728999,1.385371 -2.357517,1.68721 -1.522334,0.731062 -3.399191,0.78937 -7.096049,0.22046 -4.29556,-0.661045 -5.848782,-0.811684 -8.498749,-0.82421 -1.845245,-0.0092 -2.742398,0.06002 -3.524359,0.270206 -4.27104,1.147831 -8.117287,4.299493 -9.836548,8.060213 -0.532923,1.1657 -1.243746,3.84865 -1.239704,4.67916 0.0041,0.85079 0.510232,1.9597 1.058272,2.3188 0.557432,0.36527 1.633118,0.23498 2.161958,-0.26185 0.212525,-0.19967 0.692092,-1.08746 1.065704,-1.97287 1.294284,-3.06731 2.761874,-5.2253 3.994299,-5.8733 0.605796,-0.31852 1.391033,-0.30158 1.519344,0.0328 0.120879,0.31503 0.06798,0.42153 -1.75212,3.52855 -1.745698,2.97998 -2.251081,4.48989 -2.318636,6.92738 -0.02746,0.98953 -0.0051,1.05092 0.576755,1.58414 1.902071,1.74318 3.151083,0.59083 5.737549,-5.29346 1.972238,-4.48688 1.982017,-4.5047 2.984759,-5.43307 1.005151,-0.93063 1.678971,-1.22688 2.063872,-0.90742 0.46052,0.3822 0.253376,1.13644 -0.752868,2.7412 -1.59097,2.53729 -2.365111,5.08815 -2.386098,7.86234 -0.01194,1.57985 -7.2e-5,1.63314 0.450741,2.02162 0.537424,0.4631 1.227903,0.51264 2.005086,0.14382 z m 48.77195,-11.30855 c 0.68073,-0.0869 1.58452,-0.27233 2.00843,-0.41209 0.85884,-0.28315 2.16445,-1.34519 2.53527,-2.06231 0.29808,-0.57642 0.31324,-1.47911 0.0313,-1.86467 -0.29603,-0.40485 -1.214,-0.57298 -2.27142,-0.41604 -2.77653,0.41213 -4.05023,0.47902 -9.23461,0.48501 -8.950683,0.0103 -13.780278,-0.50535 -18.544279,-1.980023 -1.790252,-0.554157 -2.638103,-0.621897 -3.464068,-0.276788 -1.165759,0.487102 -1.723273,1.982211 -1.1722,3.143571 0.440165,0.9276 1.393033,1.3958 3.238379,1.59123 0.848072,0.0898 2.247424,0.3444 3.109678,0.56574 3.037604,0.77973 6.719988,1.21203 11.96427,1.40458 3.96255,0.14549 9.97489,0.0547 11.79925,-0.17821 z m 2.74978,-7.827729 c 0.69379,-0.289895 1.20196,-1.309801 1.20718,-2.422835 0.005,-1.06376 -0.21794,-1.555059 -0.85566,-1.885755 -0.48736,-0.252718 -1.16485,-0.278053 -6.56681,-0.245582 -8.2275,0.04951 -13.459614,-0.361209 -19.112663,-1.50018 -2.862349,-0.576698 -3.381492,-0.532855 -4.234596,0.357614 -0.389199,0.406246 -0.490633,0.677788 -0.547643,1.465994 -0.0639,0.883886 -0.02919,1.01123 0.40201,1.475242 1.544706,1.662067 12.85992,3.095161 23.532542,2.980445 1.7917,-0.01929 3.31405,0.02286 3.383,0.0936 0.17818,0.182712 2.12429,-0.03921 2.79264,-0.318499 z m -0.0684,-7.516804 c 0.81552,-0.226493 1.16227,-0.89345 1.18187,-2.273319 0.0139,-0.975033 -0.0202,-1.075571 -0.5142,-1.517667 -0.29097,-0.260394 -0.8108,-0.526688 -1.15518,-0.591764 -0.34437,-0.06502 -2.30366,0.01664 -4.35396,0.181569 -4.31019,0.346712 -9.32942,0.276441 -12.197034,-0.170749 -2.554975,-0.398436 -3.794852,-0.130529 -4.462333,0.964202 -0.47724,0.782725 -0.416841,1.483071 0.18723,2.171098 0.962963,1.096772 1.204027,1.125363 10.463527,1.240929 4.53817,0.05665 8.69678,0.117492 9.24136,0.135234 0.54458,0.01776 1.26851,-0.04502 1.60872,-0.139533 z m -6.34301,-6.579684 c 4.62029,-0.596275 4.63244,-0.604147 4.05593,-2.627902 -0.27474,-0.964417 -0.87329,-1.771354 -1.49266,-2.012353 -0.2263,-0.08809 -0.94696,-0.01756 -1.98029,0.193705 -0.8935,0.182672 -2.68764,0.509479 -3.98699,0.726244 -3.34551,0.55813 -3.99218,0.979248 -4.51501,2.940235 -0.20635,0.773916 -0.19981,0.811686 0.19654,1.135155 0.37681,0.307535 0.55688,0.325929 2.22527,0.22734 0.99839,-0.059 3.47214,-0.321079 5.49721,-0.582424 z m 42.83895,-0.831212 c 0.49734,-0.497341 0.18941,-0.899371 -0.74075,-0.96707 -0.3977,-0.02899 -0.77887,-0.140339 -0.84704,-0.247543 -0.0682,-0.107194 -0.12509,-1.030369 -0.12648,-2.05148 l -0.002,-1.85657 0.48329,0 c 0.46007,0 1.00193,-0.357002 1.00193,-0.660107 0,-0.303114 -0.54186,-0.660118 -1.00193,-0.660118 -0.47756,0 -0.48329,-0.01113 -0.48329,-0.935915 0,-1.044599 -0.29699,-1.539511 -0.92385,-1.539511 -0.55428,0 -0.89141,0.600054 -0.89141,1.5866 0,0.761779 -0.0422,0.863634 -0.39437,0.952024 -0.71229,0.178782 -0.72515,1.011821 -0.0184,1.189216 0.36469,0.09156 0.37789,0.163072 0.4387,2.377573 0.0667,2.427 0.1822,2.775315 1.04668,3.155102 0.56712,0.249156 2.07835,0.03889 2.45941,-0.342201 z m 2.33601,0.254167 c 0.28283,-0.20673 0.33,-0.503322 0.40285,-2.532846 0.0576,-1.602607 0.15109,-2.381258 0.309,-2.57134 0.33012,-0.397406 1.44456,-0.366251 1.66548,0.04655 0.094,0.175567 0.17084,1.289509 0.17084,2.475426 0,1.936183 0.0337,2.189901 0.33004,2.486279 0.39409,0.394098 0.63399,0.412493 1.10221,0.08453 0.32223,-0.225698 0.35518,-0.424233 0.40803,-2.458319 0.0492,-1.894074 0.10277,-2.262806 0.37187,-2.559959 0.41353,-0.456682 1.33938,-0.473087 1.5776,-0.02797 0.094,0.175557 0.17083,1.289499 0.17083,2.475427 0,1.936182 0.0337,2.189901 0.33005,2.486268 0.40156,0.401581 0.78238,0.419894 1.18343,0.05696 0.26747,-0.242061 0.30179,-0.562007 0.30179,-2.813677 0,-1.901331 -0.0604,-2.657464 -0.24027,-3.005188 -0.27379,-0.529476 -1.15356,-1.005952 -1.84748,-1.000602 -0.53287,0.0041 -1.77046,0.52235 -1.95309,0.81786 -0.0845,0.136808 -0.26081,0.06176 -0.5854,-0.249216 -0.66421,-0.636374 -1.6622,-0.715058 -2.64784,-0.208754 l -0.75564,0.388137 -0.29066,-0.385349 c -0.20169,-0.267387 -0.42387,-0.369814 -0.72577,-0.334576 -0.75545,0.08819 -0.86672,0.581455 -0.81737,3.62331 0.0395,2.432665 0.0805,2.787126 0.35894,3.094283 0.36693,0.404889 0.73305,0.439861 1.18056,0.112756 z M 80.791482,39.893909 c 0.06349,-0.165583 -0.08442,-0.428836 -0.40598,-0.722591 -1.160022,-1.059532 -1.039531,-3.282976 0.232113,-4.283273 0.240963,-0.189541 0.642064,-0.344631 0.891335,-0.344631 0.398121,0 0.475536,0.0886 0.636603,0.728245 0.100852,0.40053 0.135527,0.967439 0.07707,1.259814 -0.08268,0.41332 -0.05482,0.514583 0.125014,0.455183 0.361137,-0.11926 0.638787,-0.807041 0.641461,-1.588938 0.002,-0.589295 0.05267,-0.704104 0.291225,-0.659627 0.55829,0.10408 0.897267,1.096128 0.793413,2.322012 -0.09656,1.139766 0.0041,1.324551 0.467513,0.860825 0.913718,-0.913735 0.747077,-3.960989 -0.299892,-5.484269 -2.010772,-2.925546 -5.937129,-2.121028 -6.96881,1.427918 -0.563924,1.939887 0.07911,4.592125 1.347915,5.55995 0.898328,0.685208 1.997063,0.922757 2.171033,0.469382 z M 60.409665,81.32122 c -0.405214,-0.889377 -0.131209,-1.612284 1.009694,-2.663967 0.936841,-0.863572 1.375711,-1.093128 1.85831,-0.972001 0.368681,0.09248 0.377205,0.124628 0.167957,0.632892 -0.121226,0.29447 -0.273096,0.927749 -0.337476,1.407278 -0.161343,1.201679 -0.909322,2.01613 -1.851594,2.01613 -0.54215,0 -0.688457,-0.07258 -0.846891,-0.420332 z M 48.281398,75.855539 c -0.208461,-0.208466 -0.108079,-0.963823 0.193722,-1.457756 0.297932,-0.487582 0.617249,-0.693456 1.594043,-1.027705 0.27229,-0.0932 0.625027,-0.223615 0.783859,-0.289875 0.617555,-0.257608 0.244627,1.442627 -0.533311,2.431522 -0.300147,0.381543 -0.48216,0.453826 -1.142659,0.453826 -0.432102,0 -0.835153,-0.04951 -0.895654,-0.110012 z M 95.049683,40.729848 c -1.003396,-0.45117 -1.949322,-1.363628 -2.428042,-2.342122 -0.813002,-1.661751 -0.736291,-4.622106 0.170448,-6.57807 0.853873,-1.841952 2.664319,-3.113627 4.374587,-3.072786 3.644504,0.08707 6.055234,3.131144 5.743544,7.252542 -0.16401,2.168555 -1.47266,4.183143 -3.0333,4.669603 -1.044002,0.325409 -4.159389,0.37113 -4.827237,0.07085 z m 1.907735,-0.984169 c 0.0539,-0.140583 -0.152696,-0.531303 -0.488438,-0.923553 -0.956327,-1.11728 -1.003058,-2.690294 -0.116286,-3.914482 0.480385,-0.663169 1.309616,-1.129254 1.725294,-0.969743 0.301566,0.115726 0.587003,1.118044 0.595404,2.09077 l 0.0061,0.742628 0.313213,-0.375591 c 0.174276,-0.208977 0.363741,-0.779979 0.42711,-1.287212 0.134731,-1.078367 0.469819,-1.16098 0.951385,-0.234537 0.24112,0.463889 0.282,0.811858 0.20839,1.773568 -0.0761,0.994847 -0.0498,1.196464 0.15626,1.196464 0.13632,0 0.3993,-0.241358 0.5844,-0.536347 0.29701,-0.473363 0.32974,-0.749517 0.27865,-2.351655 -0.0501,-1.57036 -0.11611,-1.926658 -0.48926,-2.640458 -0.5359,-1.025103 -1.309436,-1.777836 -2.276114,-2.21492 -2.093128,-0.946409 -4.521864,0.289916 -5.460134,2.77943 -0.285601,0.757797 -0.334853,1.1836 -0.278282,2.406002 0.07982,1.72549 0.500585,2.875027 1.355581,3.703739 0.839256,0.81346 2.313695,1.258128 2.506406,0.755897 z"
       id="path2904"
       style="fill:#1f1f1f;fill-opacity:1" />
  </g>
</svg>
